<svg xmlns="http://www.w3.org/2000/svg" width="150" viewBox="0 0 150 150" height="150" version="1.0"><defs><clipPath id="a"><path d="M 7.449219 6.578125 L 142.449219 6.578125 L 142.449219 143.078125 L 7.449219 143.078125 Z M 7.449219 6.578125"/></clipPath></defs><g clip-path="url(#a)"><path d="M 7.496094 6.574219 L 131.449219 6.574219 L 134.738281 40.898438 L 130.105469 40.898438 C 129.539062 34.121094 128.15625 28.953125 125.964844 25.398438 C 123.769531 21.839844 120.761719 19.222656 116.945312 17.546875 C 113.125 15.867188 107.070312 15.0625 98.785156 15.128906 L 42.351562 15.128906 L 92.6875 68.480469 L 35.40625 124.351562 L 98.175781 124.351562 C 109.550781 124.351562 118.246094 122.839844 124.257812 119.820312 C 130.269531 116.800781 134.777344 110.492188 137.785156 100.894531 L 142.417969 101.800781 L 135.347656 143.074219 L 7.496094 143.074219 L 7.496094 139.449219 L 71.117188 77.441406 L 7.496094 10.195312 Z M 7.496094 6.574219"/></g></svg>